<svg viewBox="0 0 512 512" xmlns="http://www.w3.org/2000/svg"><g transform="translate(-18, 15.5)">
<path fill="#1DB954" d="M286 409Q257 409 231 398.50Q205 388 184.50 367Q164 346 152 314.50Q140 283 140 241Q140 200 152 168.50Q164 137 184 115.50Q204 94 231 83Q258 72 287 72Q321 72 344.50 82Q368 92 383.50 107Q399 122 408 139.50Q417 157 421 171L504 135Q495 109 478 82.50Q461 56 434 34Q407 12 370.50-1.50Q334-15 287-15Q234-15 189.50 4.50Q145 24 113 58.50Q81 93 62.50 139.50Q44 186 44 241Q44 297 62.50 344Q81 391 113.50 424.50Q146 458 190.50 477Q235 496 286 496Q334 496 370.50 482.50Q407 469 433.50 447Q460 425 476 397.50Q492 370 500 343L415 307Q410 325 401 343Q392 361 376.50 375.50Q361 390 339 399.50Q317 409 286 409Z"></path>
</g></svg>
