<svg xmlns="http://www.w3.org/2000/svg" viewBox="0 0 24 24"><path d="M12.908,10.167 C12.729,10.377 12.754,10.693 12.964,10.872 C13.669,11.474 14.096,12.314 14.169,13.237 C14.242,14.161 13.951,15.057 13.349,15.761 L9.912,19.785 C9.311,20.489 8.471,20.917 7.547,20.99 C6.629,21.064 5.727,20.772 5.023,20.17 C4.318,19.569 3.891,18.729 3.818,17.805 C3.745,16.882 4.036,15.985 4.638,15.281 L6.786,12.766 C6.965,12.556 6.94,12.241 6.73,12.061 C6.52,11.882 6.205,11.906 6.025,12.116 L3.877,14.63 C3.102,15.537 2.727,16.692 2.82,17.882 C2.914,19.072 3.465,20.154 4.373,20.929 C5.19,21.627 6.206,22 7.268,22 C7.387,22 7.506,21.996 7.626,21.986 C8.816,21.892 9.898,21.34 10.673,20.433 L14.109,16.41 C14.884,15.503 15.259,14.348 15.166,13.158 C15.072,11.968 14.521,10.886 13.613,10.111 C13.404,9.932 13.088,9.956 12.908,10.167 Z M19.626,3.07 C18.718,2.296 17.566,1.921 16.374,2.013 C15.184,2.107 14.102,2.658 13.327,3.566 L9.891,7.59 C9.116,8.497 8.741,9.652 8.834,10.842 C8.928,12.032 9.479,13.114 10.387,13.889 C10.481,13.97 10.597,14.009 10.712,14.009 C10.853,14.009 10.993,13.949 11.092,13.834 C11.271,13.624 11.246,13.308 11.036,13.129 C10.331,12.527 9.904,11.687 9.831,10.764 C9.758,9.84 10.049,8.944 10.651,8.24 L14.088,4.217 C14.689,3.513 15.529,3.085 16.453,3.012 C17.374,2.941 18.273,3.231 18.977,3.832 C19.682,4.434 20.109,5.273 20.182,6.197 C20.255,7.12 19.964,8.017 19.362,8.721 L17.214,11.236 C17.035,11.446 17.06,11.761 17.27,11.941 C17.48,12.12 17.795,12.096 17.975,11.886 L20.123,9.371 C20.898,8.463 21.273,7.309 21.18,6.119 C21.085,4.928 20.534,3.846 19.626,3.07 Z"></path></svg>